<?xml version="1.0" standalone="no"?>
<!DOCTYPE svg PUBLIC "-//W3C//DTD SVG 20010904//EN"
 "http://www.w3.org/TR/2001/REC-SVG-20010904/DTD/svg10.dtd">
<svg version="1.0" xmlns="http://www.w3.org/2000/svg"
 width="866.000000pt" height="394.000000pt" viewBox="0 0 866.000000 394.000000"
 preserveAspectRatio="xMidYMid meet">

<g transform="translate(0.000000,394.000000) scale(0.100000,-0.100000)"
fill="#000000" stroke="none">
<path d="M4778 3929 c-207 -14 -444 -72 -671 -161 -208 -82 -430 -239 -652
-462 -330 -332 -521 -714 -580 -1161 -15 -114 -21 -418 -9 -449 5 -14 31 -16
188 -16 l181 0 110 155 c80 113 115 155 130 155 17 0 465 -56 608 -76 l49 -7
56 -113 57 -114 713 0 c624 0 713 2 718 15 8 19 68 19 239 0 96 -11 253 -15
603 -15 l472 0 0 179 c0 208 -17 361 -60 526 -56 218 -140 412 -247 571 -369
547 -824 858 -1395 953 -64 11 -341 32 -383 29 -11 0 -68 -4 -127 -9z m487
-209 c224 -50 224 -50 254 -94 59 -86 241 -483 241 -526 0 -25 -57 -108 -248
-362 -129 -171 -160 -207 -177 -203 -27 6 -538 64 -595 67 l-45 3 -52 100
c-63 121 -233 509 -233 531 0 25 91 152 278 388 l94 118 217 -5 c119 -3 239
-10 266 -17z m-1277 -480 c139 -17 266 -30 283 -30 25 0 32 -6 43 -32 87 -214
166 -400 202 -477 24 -52 44 -101 44 -109 0 -22 -113 -189 -264 -390 -116
-154 -142 -183 -160 -179 -11 3 -151 20 -311 37 -159 18 -300 34 -312 36 -40
7 -131 189 -233 466 l-43 118 17 44 c34 89 163 267 333 457 81 91 90 98 118
94 17 -3 144 -19 283 -35z m2237 -265 c116 -14 220 -30 232 -35 44 -18 160
-222 228 -399 44 -118 87 -271 81 -288 -4 -8 -86 -122 -183 -254 -164 -222
-178 -239 -207 -239 -31 0 -378 38 -554 61 l-93 12 -70 141 c-38 77 -102 222
-143 320 l-74 179 51 61 c47 54 98 122 301 400 l58 79 82 -7 c44 -3 176 -18
291 -31z"/>
<path d="M122 2771 l-72 -79 0 -234 0 -235 26 -24 c14 -13 30 -32 36 -43 9
-17 7 -18 -26 -12 l-36 7 0 -161 0 -161 73 -80 72 -79 241 0 241 0 71 74 72
74 0 227 0 228 -37 41 -38 41 38 3 37 3 0 166 0 165 -71 79 -72 79 -241 0
-241 -1 -73 -78z m595 -23 l63 -62 0 -138 0 -138 -135 0 -135 0 0 55 0 55 -75
0 -75 0 0 -60 0 -60 147 0 147 0 63 -62 63 -62 0 -220 0 -220 -62 -63 -62 -63
-220 0 -220 0 -63 62 -63 62 0 133 0 133 135 0 135 0 0 -55 0 -55 75 0 75 0 0
60 0 60 -149 0 -149 0 -61 65 -61 66 0 219 0 219 61 66 61 65 221 0 221 0 63
-62z m-237 -283 c0 -23 -4 -25 -45 -25 -41 0 -45 2 -45 25 0 23 4 25 45 25 41
0 45 -2 45 -25z m0 -410 c0 -23 -4 -25 -45 -25 -41 0 -45 2 -45 25 0 23 4 25
45 25 41 0 45 -2 45 -25z"/>
<path d="M167 2722 l-57 -58 0 -205 0 -205 58 -57 58 -57 157 0 157 0 0 -85 0
-85 -105 0 -105 0 0 60 0 60 -110 0 -110 0 0 -118 0 -118 58 -57 58 -57 209 0
209 0 58 57 58 57 0 201 0 201 -58 57 -58 57 -157 0 -157 0 0 90 0 90 105 0
105 0 0 -60 0 -60 110 0 110 0 0 117 0 117 -57 58 -57 58 -211 0 -211 0 -57
-58z"/>
<path d="M1923 2771 l-73 -79 0 -433 1 -434 74 -77 74 -78 249 0 249 0 71 74
72 74 0 442 0 442 -72 74 -71 74 -251 -1 -251 0 -72 -78z m625 -30 l62 -70 0
-135 0 -136 -135 0 -135 0 0 60 0 60 -90 0 -90 0 0 -260 0 -260 90 0 90 0 0
30 0 30 -85 0 -85 0 0 140 0 140 220 0 220 0 0 -246 0 -245 -62 -70 -62 -69
-237 0 -237 0 -61 66 -61 67 0 417 0 417 61 67 61 66 236 0 237 0 63 -69z
m-248 -311 l0 -50 -50 0 -50 0 0 50 0 50 50 0 50 0 0 -50z"/>
<path d="M1967 2721 l-57 -60 0 -401 0 -401 57 -60 56 -59 228 0 227 0 51 58
51 57 0 228 0 227 -190 0 -190 0 0 -115 0 -115 80 0 80 0 0 -55 0 -55 -115 0
-115 0 0 290 0 290 115 0 115 0 0 -60 0 -60 110 0 110 0 0 116 0 116 -51 59
-52 59 -227 0 -227 0 -56 -59z"/>
<path d="M880 2660 l0 -180 34 0 33 0 22 -102 c12 -57 50 -238 84 -403 l63
-300 220 -3 219 -2 85 405 85 405 32 0 33 0 0 180 0 180 -455 0 -455 0 0 -180z
m420 0 c0 -133 -1 -140 -20 -140 -11 0 -20 -6 -20 -12 0 -7 17 -93 37 -191 29
-139 39 -172 45 -150 4 15 23 101 41 191 l34 162 -23 0 -24 0 0 140 0 140 195
0 195 0 0 -140 0 -140 -32 0 -33 0 -53 -258 c-30 -141 -67 -323 -84 -404 l-31
-148 -191 0 -191 0 -85 405 -84 405 -28 0 -28 0 0 140 0 140 190 0 190 0 0
-140z m70 -192 c0 -12 -9 -54 -26 -127 -7 -33 -12 -23 -25 45 -5 32 -12 67
-15 77 -4 14 1 17 30 17 22 0 36 -5 36 -12z"/>
<path d="M940 2665 l0 -115 28 0 29 0 63 -302 c34 -167 72 -350 85 -408 l21
-105 164 -3 c90 -1 167 1 171 5 4 5 44 189 90 411 l83 402 28 0 28 0 0 115 0
115 -170 0 -170 0 0 -115 0 -115 30 0 c26 0 30 -3 25 -22 -3 -13 -26 -122 -50
-243 -54 -264 -55 -268 -60 -264 -5 6 -105 491 -105 512 0 11 8 17 25 17 l25
0 0 115 0 115 -170 0 -170 0 0 -115z"/>
<path d="M40 1210 l0 -240 115 0 115 0 0 -170 0 -170 -30 0 -30 0 0 -180 0
-180 225 0 225 0 0 180 0 180 -25 0 -25 0 0 170 0 170 110 0 110 0 0 240 0
240 -395 0 -395 0 0 -240z m750 0 l0 -200 -105 0 -104 0 -4 58 c-2 31 -4 -63
-5 -210 l-2 -268 30 0 30 0 0 -140 0 -140 -190 0 -190 0 0 140 0 140 25 0 25
0 0 210 0 210 -110 0 -110 0 0 200 0 200 355 0 355 0 0 -200z"/>
<path d="M100 1205 l0 -175 85 0 85 0 0 60 0 60 30 0 30 0 0 -290 0 -290 -30
0 -30 0 0 -115 0 -115 165 0 165 0 0 115 0 115 -25 0 -25 0 0 290 0 290 25 0
c24 0 25 -3 25 -60 l0 -60 85 0 85 0 0 175 0 175 -335 0 -335 0 0 -175z"/>
<path d="M880 1265 l0 -185 30 0 30 0 0 -225 0 -225 -30 0 -30 0 0 -180 0
-180 400 0 400 0 0 235 0 235 -90 0 -90 0 0 105 0 105 90 0 90 0 0 250 0 250
-400 0 -400 0 0 -185z m760 -55 l0 -200 -135 0 -135 0 0 55 0 55 -60 0 -60 0
0 -60 0 -60 105 0 105 0 0 -145 0 -145 -105 0 -105 0 0 -60 0 -60 60 0 60 0 0
55 0 55 135 0 135 0 0 -195 0 -195 -360 0 -360 0 0 140 0 140 30 0 30 0 0 265
0 265 -30 0 -30 0 0 145 0 145 360 0 360 0 0 -200z m-310 -150 c0 -15 -7 -20
-25 -20 -18 0 -25 5 -25 20 0 15 7 20 25 20 18 0 25 -5 25 -20z m0 -405 c0
-20 -5 -25 -25 -25 -20 0 -25 5 -25 25 0 20 5 25 25 25 20 0 25 -5 25 -25z"/>
<path d="M950 1265 l0 -115 25 0 25 0 0 -290 0 -290 -25 0 -25 0 0 -115 0
-115 335 0 335 0 0 175 0 175 -115 0 -115 0 0 -60 0 -60 -85 0 -85 0 0 80 0
80 110 0 110 0 0 115 0 115 -110 0 -110 0 0 95 0 95 85 0 85 0 0 -60 0 -60
115 0 115 0 0 175 0 175 -335 0 -335 0 0 -115z"/>
<path d="M2710 1265 l0 -185 25 0 25 0 0 -225 0 -225 -25 0 -25 0 0 -180 0
-180 230 0 230 0 0 128 c1 131 1 133 36 75 10 -16 13 -14 32 22 l21 40 1 -132
0 -133 235 0 235 0 0 180 0 180 -30 0 -30 0 0 225 0 225 30 0 30 0 0 185 0
185 -187 -2 -187 -3 -66 -117 c-36 -65 -69 -120 -72 -123 -3 -3 -36 50 -73
119 l-68 126 -183 0 -184 0 0 -185z m425 -5 c43 -82 80 -148 82 -146 1 1 38
67 82 147 l79 144 156 3 156 3 0 -146 0 -145 -30 0 -30 0 0 -265 0 -265 30 0
30 0 0 -140 0 -140 -195 0 -195 0 0 140 0 140 25 0 25 0 -1 103 0 102 -65
-127 c-35 -71 -66 -128 -69 -128 -3 0 -34 57 -69 128 l-65 127 0 -102 -1 -103
30 0 30 0 0 -140 0 -140 -200 0 -200 0 0 140 0 140 30 0 30 0 0 265 0 265 -30
0 -30 0 0 145 0 145 158 0 157 0 80 -150z"/>
<path d="M2770 1265 l0 -115 30 0 30 0 0 -290 0 -290 -30 0 -30 0 0 -115 0
-115 170 0 170 0 0 115 0 115 -25 0 -25 0 1 163 0 162 77 -152 77 -153 82 158
83 157 0 -167 0 -168 -30 0 -30 0 0 -115 0 -115 170 0 170 0 0 115 0 115 -25
0 -25 0 0 290 0 290 25 0 25 0 0 115 0 115 -132 0 -133 0 -89 -156 c-48 -85
-91 -152 -94 -149 -4 4 -43 73 -88 153 l-81 147 -137 3 -136 3 0 -116z"/>
<path d="M3790 1270 l0 -180 30 0 30 0 0 -230 0 -230 -30 0 -30 0 0 -180 0
-180 225 0 225 0 0 180 0 180 -25 0 c-20 0 -25 5 -25 25 l0 25 110 0 110 0 0
140 0 140 70 0 70 0 0 245 0 245 -380 0 -380 0 0 -180z m730 -60 l0 -200 -135
0 -135 0 0 55 0 55 -50 0 -50 0 0 -60 0 -60 110 0 110 0 0 -140 0 -140 -110 0
-110 0 0 -65 0 -65 30 0 30 0 0 -140 0 -140 -190 0 -190 0 0 140 0 140 25 0
25 0 0 265 0 265 -25 0 -25 0 0 145 0 145 345 0 345 0 0 -200z m-310 -145 c0
-14 -4 -25 -10 -25 -5 0 -10 11 -10 25 0 14 5 25 10 25 6 0 10 -11 10 -25z"/>
<path d="M3850 1265 l0 -115 30 0 30 0 0 -290 0 -290 -30 0 -30 0 0 -115 0
-115 165 0 165 0 0 115 0 115 -25 0 c-25 0 -25 1 -25 85 l0 85 110 0 110 0 0
115 0 115 -110 0 -110 0 0 90 0 90 70 0 70 0 0 -60 0 -60 110 0 110 0 0 175 0
175 -320 0 -320 0 0 -115z"/>
<path d="M4620 1270 c0 -173 1 -180 20 -180 19 0 20 -7 20 -230 0 -223 -1
-230 -20 -230 -19 0 -20 -7 -20 -180 l0 -180 195 0 195 0 0 180 0 180 -25 0
-25 0 0 230 0 230 25 0 25 0 0 180 0 180 -195 0 -195 0 0 -180z m350 -5 c0
-138 -1 -145 -20 -145 -19 0 -20 -7 -20 -260 0 -253 1 -260 20 -260 19 0 20
-7 20 -145 l0 -145 -160 0 -160 0 0 145 c0 138 1 145 20 145 19 0 20 7 20 260
0 253 -1 260 -20 260 -19 0 -20 7 -20 145 l0 145 160 0 160 0 0 -145z"/>
<path d="M4670 1265 c0 -108 1 -115 20 -115 20 0 20 -7 20 -290 0 -283 0 -290
-20 -290 -19 0 -20 -7 -20 -120 l0 -120 140 0 140 0 0 120 c0 113 -1 120 -20
120 -20 0 -20 7 -20 290 0 283 0 290 20 290 19 0 20 7 20 115 l0 115 -140 0
-140 0 0 -115z"/>
<path d="M5090 1265 l0 -185 25 0 25 0 0 -225 0 -225 -25 0 -25 0 0 -180 0
-180 230 0 230 0 1 38 1 37 15 -37 16 -38 163 0 164 0 0 405 0 405 30 0 30 0
0 185 0 185 -229 0 -230 0 -3 -52 -3 -53 -20 53 -20 52 -187 0 -188 0 0 -185z
m399 23 c25 -64 50 -120 54 -124 4 -4 7 50 7 119 l0 127 190 0 190 0 0 -145 0
-145 -25 0 -25 0 0 -405 0 -405 -138 0 -138 0 -44 117 -45 117 -3 -117 -3
-117 -194 0 -195 0 0 140 0 140 30 0 30 0 0 265 0 265 -30 0 -30 0 0 145 0
145 161 -2 161 -3 47 -117z"/>
<path d="M5150 1265 l0 -115 25 0 25 0 0 -290 0 -290 -25 0 -25 0 0 -115 0
-115 165 0 165 0 0 115 0 115 -25 0 -25 0 1 128 0 127 97 -242 97 -243 113 0
112 0 0 405 0 405 30 0 30 0 0 115 0 115 -170 0 -170 0 0 -115 0 -115 30 0 30
0 0 -135 c0 -74 -2 -135 -4 -135 -2 0 -48 112 -102 250 l-99 250 -137 0 -138
0 0 -115z"/>
<path d="M5566 1098 c3 -13 13 -34 20 -48 13 -24 13 -23 14 23 0 41 -3 47 -21
47 -16 0 -19 -4 -13 -22z"/>
<path d="M5453 645 c2 -38 6 -51 20 -53 21 -4 21 12 -3 63 l-19 40 2 -50z"/>
<path d="M6920 1265 l0 -185 30 0 30 0 0 -225 0 -225 -30 0 -30 0 0 -180 0
-180 400 0 400 0 0 235 0 235 -90 0 -90 0 0 105 0 105 90 0 90 0 0 250 0 250
-400 0 -400 0 0 -185z m760 -55 l0 -200 -135 0 -135 0 0 55 0 55 -60 0 -60 0
0 -60 0 -60 105 0 105 0 0 -145 0 -145 -105 0 -105 0 0 -60 0 -60 60 0 60 0 0
55 0 55 135 0 135 0 0 -195 0 -195 -360 0 -360 0 0 140 0 140 30 0 30 0 0 265
0 265 -30 0 -30 0 0 145 0 145 360 0 360 0 0 -200z m-310 -150 c0 -15 -7 -20
-25 -20 -18 0 -25 5 -25 20 0 15 7 20 25 20 18 0 25 -5 25 -20z m0 -405 c0
-20 -5 -25 -25 -25 -20 0 -25 5 -25 25 0 20 5 25 25 25 20 0 25 -5 25 -25z"/>
<path d="M6990 1265 l0 -115 25 0 25 0 0 -290 0 -290 -25 0 -25 0 0 -115 0
-115 335 0 335 0 0 175 0 175 -115 0 -115 0 0 -60 0 -60 -85 0 -85 0 0 80 0
80 110 0 110 0 0 115 0 115 -110 0 -110 0 0 95 0 95 85 0 85 0 0 -60 0 -60
115 0 115 0 0 175 0 175 -335 0 -335 0 0 -115z"/>
<path d="M1850 1260 c0 -173 1 -180 20 -180 26 0 26 0 -24 -240 l-42 -205 -37
-3 -37 -3 0 -180 0 -179 460 0 460 0 0 180 0 180 -34 0 c-24 0 -36 5 -40 18
-8 24 -86 409 -86 422 0 5 9 10 20 10 19 0 20 7 20 180 l0 180 -340 0 -340 0
0 -180z m650 0 l0 -140 -31 0 c-27 0 -30 -3 -25 -23 3 -12 26 -121 51 -242 24
-121 47 -230 50 -242 4 -18 13 -23 35 -23 l30 0 0 -140 0 -140 -195 0 -195 0
0 139 0 140 28 4 c15 2 -11 4 -58 4 -47 0 -73 -2 -57 -4 l27 -4 0 -140 0 -139
-195 0 -195 0 0 140 0 140 30 0 c23 0 31 5 35 23 7 31 105 500 105 504 0 2
-13 3 -30 3 l-30 0 0 140 0 140 310 0 310 0 0 -140z"/>
<path d="M1910 1265 l0 -115 30 0 c17 0 30 -2 30 -5 0 -9 -110 -549 -116 -567
-4 -12 -15 -18 -35 -18 l-30 0 3 -112 3 -113 168 -3 167 -2 0 115 0 115 -25 0
c-26 0 -32 19 -19 54 9 24 199 24 208 0 13 -35 7 -54 -19 -54 l-25 0 0 -115 0
-115 170 0 170 0 0 115 0 115 -29 0 c-20 0 -31 6 -35 18 -5 17 -116 560 -116
568 0 2 14 4 30 4 l30 0 0 115 0 115 -280 0 -280 0 0 -115z m304 -267 c10 -51
21 -103 23 -115 5 -22 2 -23 -47 -23 -49 0 -52 1 -47 23 2 12 13 64 23 115 10
50 21 92 24 92 3 0 14 -42 24 -92z"/>
<path d="M2180 945 c0 -11 -3 -30 -6 -42 -5 -19 -2 -23 15 -23 18 0 20 4 14
33 -7 38 -23 60 -23 32z"/>
<path d="M6040 1260 l0 -180 25 0 25 0 0 -225 0 -225 -25 0 -25 0 0 -180 0
-180 338 0 339 0 71 74 72 74 0 437 0 437 -72 74 -71 74 -339 0 -338 0 0 -180z
m724 73 l66 -68 0 -410 0 -410 -66 -67 -66 -68 -314 0 -314 0 0 140 0 140 30
0 30 0 0 265 0 265 -30 0 -30 0 0 140 0 140 314 0 314 0 66 -67z"/>
<path d="M6100 1265 l0 -115 25 0 25 0 0 -295 0 -295 -25 0 -25 0 0 -115 0
-115 292 0 292 0 58 57 58 57 0 411 0 411 -58 57 -58 57 -292 0 -292 0 0 -115z
m480 -410 l0 -295 -100 0 -100 0 0 295 0 295 100 0 100 0 0 -295z"/>
<path d="M6400 855 l0 -265 75 0 75 0 0 265 0 265 -75 0 -75 0 0 -265z m120 0
l0 -225 -40 0 -40 0 0 225 0 225 40 0 40 0 0 -225z"/>
<path d="M7780 1260 l0 -180 30 0 30 0 0 -225 0 -225 -30 0 -30 0 0 -180 0
-180 420 0 420 0 0 180 c0 173 -1 180 -20 180 -19 0 -20 7 -20 99 0 76 -3 101
-15 111 -14 12 -14 15 0 30 12 14 15 51 15 216 l0 199 -71 78 -71 77 -329 0
-329 0 0 -180z m697 78 l63 -62 0 -190 c0 -176 -1 -191 -20 -211 l-20 -22 20
-18 c18 -16 20 -31 20 -132 0 -106 1 -113 20 -113 19 0 20 -7 20 -140 l0 -140
-180 0 -180 0 0 140 0 140 25 0 c24 0 25 3 25 60 l0 60 -65 0 -65 0 0 -60 0
-60 30 0 30 0 0 -140 0 -140 -190 0 -190 0 0 140 0 140 25 0 25 0 0 265 0 265
-25 0 -25 0 0 140 0 140 297 0 297 0 63 -62z m-247 -683 c0 -20 -5 -25 -25
-25 -20 0 -25 5 -25 25 0 20 5 25 25 25 20 0 25 -5 25 -25z"/>
<path d="M7840 1265 l0 -115 30 0 30 0 0 -295 0 -295 -30 0 -30 0 0 -115 0
-115 170 0 170 0 0 115 0 115 -30 0 -30 0 0 90 0 90 90 0 90 0 0 -90 c0 -89 0
-90 -25 -90 l-25 0 0 -115 0 -115 155 0 155 0 0 115 c0 108 -1 115 -20 115
-19 0 -20 7 -20 118 0 113 -1 120 -25 142 -14 13 -25 29 -25 35 0 6 11 22 25
35 25 23 25 25 25 199 l0 175 -57 58 -57 58 -283 0 -283 0 0 -115z m460 -205
l0 -90 -90 0 -90 0 0 90 0 90 90 0 90 0 0 -90z"/>
<path d="M8140 1060 l0 -60 65 0 65 0 0 60 0 60 -65 0 -65 0 0 -60z m90 -5 c0
-20 -5 -25 -25 -25 -20 0 -25 5 -25 25 0 20 5 25 25 25 20 0 25 -5 25 -25z"/>
<path d="M22 78 c-21 -21 -14 -58 14 -68 16 -7 1548 -10 4305 -10 l4279 0 21
21 c18 18 19 23 6 42 l-14 22 -4300 3 c-3335 1 -4302 -1 -4311 -10z"/>
</g>
</svg>
